<svg id="DASHLINE" enable-background="new 0 0 64 64" viewBox="0 0 64 64" xmlns="http://www.w3.org/2000/svg"><g fill="rgb(0,0,0)"><path d="m9 17c2.7568359 0 5-2.2431641 5-5s-2.2431641-5-5-5-5 2.2431641-5 5 2.2431641 5 5 5zm0-8c1.6542969 0 3 1.3457031 3 3s-1.3457031 3-3 3-3-1.3457031-3-3 1.3457031-3 3-3z"/><path d="m55 17c2.7568359 0 5-2.2431641 5-5s-2.2431641-5-5-5-5 2.2431641-5 5 2.2431641 5 5 5zm0-8c1.6542969 0 3 1.3457031 3 3s-1.3457031 3-3 3-3-1.3457031-3-3 1.3457031-3 3-3z"/><path d="m59 46h-.5404663c.9542847-1.0628052 1.5404663-2.4624634 1.5404663-4v-18c0-1.6542969-1.3457031-3-3-3h-5.2597656c-.7158203 0-1.4091797.2563477-1.9521484.722168l-6.1582032 5.277832h-6.6855469c-1.6357422 0-2.953125 1.2807617-2.9990234 2.9150391l-.0566406 1.9995117c-.0108032.37677.0549927.7415771.1766968 1.0854492h-4.1328735c.121582-.3438721.1877441-.7084961.1778564-1.0849609l-.0507812-2.012207c-.0595704-1.6279298-1.3779298-2.9028321-2.9990235-2.9028321h-6.6982422c-.1679688-.1166992-.3671875-.1796875-.5722656-.1796875h-.0097656c-.5527344 0-.9951172.4477539-.9951172 1 0 .3217773.1542969.6083984.3916016.7915039l.1728516.1479492c.1816405.1552735.4121093.2402344.6503905.2402344h7.0605469c.5410156 0 .9804688.4291992 1 .9648438l.0498047 2.0019531c.0078125.2763672-.0927734.5361328-.2841797.7319336-.1884766.1943359-.4433594.3012695-.7158203.3012695h-8.7597656l-4.725586-3.7807617c-.4326172-.3452148-1.0605469-.2739258-1.40625.15625-.3447266.4311523-.2744141 1.0605469.15625 1.4052734l3.3569946 2.6856079c-.4431762.3671265-.7319946.9144287-.7319946 1.5336304v4c0 1.1030273.8974609 2 2 2h7v18c0 .5512695-.4482422 1-1 1h-3c-.5517578 0-1-.4487305-1-1v-6-6c0-.5522461-.4472656-1-1-1h-8c-2.2060547 0-4-1.7944336-4-4v-18c0-.5512695.4482422-1 1-1h5.2607422c.2392578 0 .46875.0844727.6484375.2387695l3.7998047 3.2602539c.4189453.359375 1.0507812.3125 1.4101562-.1074219.359375-.4194336.3115234-1.0507812-.1074219-1.4101562l-3.7988281-3.2592773c-.5410156-.4658203-1.234375-.722168-1.9521484-.722168h-5.2607422c-1.6542969 0-3 1.3457031-3 3v18c0 1.5375366.5861816 2.9371948 1.5404663 4h-.5404663c-1.1025391 0-2 .8969727-2 2v4c0 1.1030273.8974609 2 2 2h5v6h-3c-.5527344 0-1 .4477539-1 1s.4472656 1 1 1h8c.5527344 0 1-.4477539 1-1s-.4472656-1-1-1h-3v-6h5v5c0 1.6542969 1.3457031 3 3 3h3c1.6542969 0 3-1.3457031 3-3v-18h3v19c0 1.1030273.8974609 2 2 2h2c1.1025391 0 2-.8969727 2-2v-19h3v18c0 1.6542969 1.3457031 3 3 3h3c1.6542969 0 3-1.3457031 3-3v-5h5v6h-3c-.5527344 0-1 .4477539-1 1s.4472656 1 1 1h8c.5527344 0 1-.4477539 1-1s-.4472656-1-1-1h-3v-6h5c1.1025391 0 2-.8969727 2-2v-4c0-1.1030273-.8974609-2-2-2zm-54 6v-4h5 7v4zm12-17h1 9.1103516 9.7773438 9.1123046 1l.0009766 4h-13.0009766-4-13zm16.0009766 25h-2.0009766v-19h2zm11.9990234-1c0 .5512695-.4482422 1-1 1h-3c-.5517578 0-1-.4487305-1-1v-18h7c1.1025391 0 2-.8969727 2-2v-4c0-.6192017-.2888184-1.1665039-.7319946-1.5336304l3.3569946-2.6856079c.4306641-.3447266.5009766-.9741211.15625-1.4052734-.3457031-.4311523-.9736328-.5024414-1.40625-.15625l-4.7255859 3.7807617h-8.7617188c-.2724609 0-.5273438-.1074219-.7167969-.3032227-.1904297-.1948242-.2900391-.4526367-.2822266-.7250977l.0566406-2.0004883c.0146485-.5444335.4541017-.9711913.9990235-.9711913h7.0556641c.2382812 0 .4697266-.0854492.6503906-.2407227l6.4384766-5.5185547c.1816406-.1552734.4130859-.2407226.6513672-.2407226h5.2597656c.5517578 0 1 .4487305 1 1v18c0 2.2055664-1.7939453 4-4 4h-8c-.5527344 0-1 .4477539-1 1v6zm14-7h-12v-4h7 5z"/><path d="m19 19h.9609375v5c0 .4389648.2861328.8266602.7060547.9555664.0966797.0302734.196289.0444336.2939453.0444336.3251953 0 .6376953-.1586914.8271484-.4379883l3.78125-5.5620117h4.4306641c1.1025391 0 2-.8969727 2-2v-13c0-1.1030273-.8974609-2-2-2h-11c-1.1025391 0-2 .8969727-2 2v13c0 1.1030273.8974609 2 2 2zm11-15.0004883 1 .0004883h-1s0 0 0-.0004883zm-11 .0004883 11 .0024414v12.9975586h-4.9599609c-.3310547 0-.640625.1640625-.8271484.4379883l-2.2519531 3.3125v-2.7504883c0-.5522461-.4472656-1-1-1h-1.9609376z"/><path d="m22 8h5c.5527344 0 1-.4477539 1-1s-.4472656-1-1-1h-5c-.5527344 0-1 .4477539-1 1s.4472656 1 1 1z"/><path d="m22 12h5c.5527344 0 1-.4477539 1-1s-.4472656-1-1-1h-5c-.5527344 0-1 .4477539-1 1s.4472656 1 1 1z"/><path d="m25.65625 22.4428711c-.2470703.4941406-.046875 1.0947266.4472656 1.3417969.2861328.1430664.5878906.215332.8964844.215332h7c.1314697 0 .2614746-.0268555.3830566-.0773315.1223755-.0508423.2327271-.1241455.3248291-.2164917l6.9984741-6.9984741c.0015259-.0015259.0023193-.003479.0038452-.0050049.0823975-.083374.1428223-.1802368.1906128-.2827759.0142212-.0303955.0222778-.0619507.0334473-.0939331.0301514-.0864258.0478516-.1742554.0535278-.2655029.0013428-.0211182.0122071-.0390015.0122071-.0604859v-9c0-1.1030273-.8974609-2-2-2h-5c-.5527344 0-1 .4477539-1 1s.4472656 1 1 1h5v8h-5c-.5527344 0-1 .4477539-1 1s.4472656 1 1 1h3.5859375l-3.5859375 3.5859375v-.5859375c0-.5522461-.4472656-1-1-1s-1 .4477539-1 1v1.9995117l-6.0019531-.0039062c-.4931641-.2470703-1.09375-.046875-1.3417969.4472656z"/></g></svg>