<svg id="Layer_1" enable-background="new 0 0 68 68" height="512" viewBox="0 0 68 68" width="512" xmlns="http://www.w3.org/2000/svg"><g id="_x31_44"><path d="m42.2 55.8c2.3 3.5 6.3 5.9 10.8 5.9 7.1 0 13-5.8 13-13s-5.8-13-13-13c-5.6 0-10.5 3.6-12.2 8.7h-7v-14c0-.6-.4-1-1-1h-4.8c-.6 0-1 .4-1 1v14h-2.7v-11.1c0-.6-.4-1-1-1h-4.8c-.6 0-1 .4-1 1v11.1h-2.7v-6.8c0-.6-.4-1-1-1h-4.9c-.6 0-1 .4-1 1v6.8h-3.9v-36.7c0-1.1.9-2 2-2h53c1.1 0 2 .9 2 2v26.1c0 .6.4 1 1 1s1-.4 1-1v-26.1c0-2.2-1.8-4-4-4h-53c-2.2 0-4 1.8-4 4v44.1c0 2.2 1.8 4 4 4h20.3l-1.5 6.5h-7.5c-.6 0-1 .4-1 1s.4 1 1 1h30.5c.6 0 1-.4 1-1s-.4-1-1-1h-7.5l-1.5-6.5zm-15.4 6.5 1.5-6.5h8.2l1.5 6.5zm19.2-5.2 3.3-3.3c1 .8 2.3 1.2 3.7 1.2s2.7-.5 3.7-1.2l3.3 3.3c-1.9 1.6-4.3 2.5-7 2.5-2.6 0-5.1-.9-7-2.5zm7-12.8c2.4 0 4.3 1.9 4.3 4.3s-1.9 4.4-4.3 4.4c-1.2 0-2.3-.5-3.1-1.3-.8-.8-1.3-1.9-1.3-3.1.1-2.3 2-4.3 4.4-4.3zm11 4.4c0 2.7-1 5.1-2.5 7l-3.3-3.3c.8-1 1.2-2.3 1.2-3.7 0-3.2-2.3-5.8-5.3-6.3v-4.7c5.5.5 9.9 5.3 9.9 11zm-12-11v4.7c-3 .5-5.3 3.1-5.3 6.3 0 1.4.5 2.7 1.2 3.7l-3.3 3.3c-1.6-1.9-2.6-4.4-2.6-7 0-5.7 4.4-10.5 10-11zm-23.1-6.3h2.8v13h-2.8zm-9.5 2.9h2.8v10.1h-2.8zm-9.5 4.2h2.8v5.8h-2.8zm-5.9 13.3v-5.4h36.3c-.1.7-.2 1.5-.2 2.3 0 1.8.4 3.5 1 5.1h-35.1c-1.1 0-2-.9-2-2z"/><path d="m56.2 14c1.8 0 3.3-1.5 3.3-3.3s-1.5-3.2-3.3-3.2-3.3 1.5-3.3 3.3c0 .6.2 1.2.5 1.7l-2.6 3.4c-.5-.3-1-.4-1.6-.4-1 0-1.9.5-2.5 1.2l-3.2-1.8c0-.2.1-.4.1-.6 0-1.8-1.5-3.3-3.3-3.3s-3.3 1.5-3.3 3.3c0 .6.2 1.1.4 1.6l-2.9 3.6c-.3-.1-.6-.2-1-.2-1.8 0-3.3 1.5-3.3 3.3s1.5 3.3 3.3 3.3 3.3-1.5 3.3-3.3c0-.7-.3-1.4-.7-2l2.8-3.4c.4.2.9.3 1.3.3.9 0 1.7-.3 2.2-.9l3.4 1.9v.2c0 1.8 1.5 3.3 3.3 3.3s3.3-1.5 3.3-3.3c0-.5-.1-.9-.3-1.4l2.7-3.6c.6.2 1 .3 1.4.3zm-22.4 9.7c-.7 0-1.3-.6-1.3-1.3s.6-1.3 1.3-1.3 1.3.6 1.3 1.3-.6 1.3-1.3 1.3zm6.6-8.3c-.7 0-1.3-.6-1.3-1.3s.6-1.3 1.3-1.3 1.3.6 1.3 1.3-.6 1.3-1.3 1.3zm15.8-5.9c.7 0 1.3.6 1.3 1.3s-.6 1.2-1.3 1.2-1.3-.6-1.3-1.3.6-1.2 1.3-1.2zm-6.9 10.5c-.7 0-1.3-.6-1.3-1.3s.6-1.3 1.3-1.3 1.3.6 1.3 1.3-.6 1.3-1.3 1.3z"/><path d="m25.6 9.8h-16.7c-.6 0-1 .4-1 1s.4 1 1 1h16.7c.6 0 1-.4 1-1s-.5-1-1-1z"/><path d="m26.6 15.8c0-.6-.4-1-1-1h-16.7c-.6 0-1 .4-1 1s.4 1 1 1h16.7c.5 0 1-.4 1-1z"/><path d="m8.9 19.9c-.6 0-1 .4-1 1s.4 1 1 1h10.3c.6 0 1-.4 1-1s-.4-1-1-1z"/></g></svg>