<svg id="Layer_1" viewBox="0 0 512 512" xmlns="http://www.w3.org/2000/svg" data-name="Layer 1"><path d="m428.8 328.029v-39.59a7 7 0 0 0 -7-7h-39.96a124.058 124.058 0 0 0 .586-40.341h39.374a7 7 0 0 0 7-7v-50.127a83.6 83.6 0 1 0 -14 .422v42.707h-35.32a123.408 123.408 0 0 0 -238.161 0h-35.319v-42.64a83.576 83.576 0 1 0 -14-.763v50.4a7 7 0 0 0 7 7h39.374a124.058 124.058 0 0 0 .586 40.341h-39.066a7 7 0 0 0 -7 7v39.047c-.081 0-.16-.007-.24-.007a83.762 83.762 0 1 0 14.24 1.238v-33.277h35.452a123.409 123.409 0 0 0 236.107 0h36.347v32.168a83.709 83.709 0 1 0 14 .422zm-79.108-227.162a69.654 69.654 0 1 1 69.654 69.654 69.733 69.733 0 0 1 -69.654-69.654zm-315.741 0a69.654 69.654 0 1 1 69.649 69.654 69.732 69.732 0 0 1 -69.649-69.654zm128.357 310.267a69.654 69.654 0 1 1 -69.654-69.655 69.732 69.732 0 0 1 69.654 69.655zm98.092-42.246a109.4 109.4 0 1 1 109.4-109.4 109.525 109.525 0 0 1 -109.4 109.4zm158.947 111.9a69.654 69.654 0 1 1 69.653-69.654 69.732 69.732 0 0 1 -69.654 69.653zm-127.485-208.839a7 7 0 0 1 -9.694 2.008 46.852 46.852 0 0 0 -47.049-2.478 7 7 0 1 1 -6.415-12.444 60.853 60.853 0 0 1 61.151 3.221 7 7 0 0 1 2.007 9.693zm23.8-18.8a7 7 0 0 1 -9.859.884 76.951 76.951 0 0 0 -91.455-5.279 7 7 0 0 1 -7.687-11.7 90.951 90.951 0 0 1 108.118 6.236 7 7 0 0 1 .885 9.858zm-49.7 36.521v.131a7 7 0 0 1 -14 0v-.131a7 7 0 0 1 14 0zm202.384-172.94a26.5 26.5 0 0 0 -9.368-20.191 37.752 37.752 0 1 0 -75.132-5.286q0 1.181.074 2.361a26.489 26.489 0 0 0 12.927 49.616h45a26.53 26.53 0 0 0 26.499-26.5zm-84 0a12.568 12.568 0 0 1 9.137-12.036 7 7 0 0 0 4.931-8.256 23.759 23.759 0 1 1 46.558-1.038c-11.938 7.913-22.432 10.979-31.214 9.107a7 7 0 1 0 -2.919 13.691 38.657 38.657 0 0 0 8.09.842c9.924 0 20.649-3.633 32.019-10.837a12.473 12.473 0 0 1 -9.1 21.03h-45a12.514 12.514 0 0 1 -12.502-12.503zm71.554 273.876v-5.472a36.347 36.347 0 0 0 -72.694 0v5.272a15.868 15.868 0 0 0 -9.526 14.526v40.992a15.868 15.868 0 0 0 15.851 15.85h59.625c5.314 0 14.29-1.953 14.7-15.036.317-10.075 1.15-38.191 1.15-41.8a15.729 15.729 0 0 0 -4.65-11.208 15.9 15.9 0 0 0 -4.456-3.124zm-36.347-27.819a22.373 22.373 0 0 1 22.347 22.347v3.947h-44.691v-3.947a22.372 22.372 0 0 1 22.347-22.347zm30.314 83.513a14.563 14.563 0 0 1 -.108 1.456c-.166.012-.364.019-.6.019h-59.625a1.875 1.875 0 0 1 -1.851-1.85v-40.993a1.876 1.876 0 0 1 1.851-1.851h59.625a1.875 1.875 0 0 1 1.851 1.852c0 3.299-.801 30.49-1.143 41.367zm-30.311-39.354a18.483 18.483 0 1 0 18.482 18.482 18.5 18.5 0 0 0 -18.482-18.483zm0 22.965a4.483 4.483 0 1 1 4.482-4.483 4.488 4.488 0 0 1 -4.482 4.482zm-290.056-298.319c0-14.286 3.221-18.329 6.951-23.01 3.96-4.97 8.449-10.6 8.449-24.216a41.291 41.291 0 0 0 -82.581 0c0 14.851 5.252 20.7 9.472 25.391 3.842 4.276 7.16 7.969 7.16 21.835a7 7 0 0 0 7 7h36.549a7 7 0 0 0 7-7zm-18.891-7v-22.592a7 7 0 0 0 -14 0v22.6h-3.96c-1.259-13.965-6.3-19.569-10.45-24.193-3.544-3.943-5.885-6.547-5.885-16.033a27.291 27.291 0 0 1 54.581 0c0 8.718-2.147 11.412-5.4 15.491-3.867 4.853-8.554 10.735-9.727 24.735zm3.558 34.065h-21.119a7 7 0 0 1 0-14h21.114a7 7 0 0 1 0 14zm-80.592 252.476a59.079 59.079 0 1 0 59.079-59.079 59.146 59.146 0 0 0 -59.079 59.079zm59.079 44.545c-3.837 0-12.4-12.759-13.789-37.545h27.577c-1.392 24.786-9.952 37.545-13.788 37.545zm-13.789-51.545c1.393-24.787 9.952-37.545 13.789-37.545s12.4 12.758 13.788 37.545zm-7.224-32.865c-3.865 9.186-6.144 20.848-6.782 32.865h-16.738a45.2 45.2 0 0 1 23.52-32.865zm-23.52 46.865h16.738c.638 12.016 2.917 23.679 6.782 32.865a45.2 45.2 0 0 1 -23.52-32.865zm65.546 32.867c3.864-9.186 6.143-20.849 6.782-32.865h16.738a45.2 45.2 0 0 1 -23.52 32.865zm23.52-46.865h-16.738c-.639-12.017-2.918-23.679-6.782-32.865a45.2 45.2 0 0 1 23.52 32.863z"/></svg>