<svg id="Layer_1" enable-background="new 0 0 512 512" height="512" viewBox="0 0 512 512" width="512" xmlns="http://www.w3.org/2000/svg"><path d="m355.692 398.888-70.846 19.273c-1.509.41-3.001.716-4.485.917.434-.633.849-1.292 1.244-1.977 6.896-11.945 2.882-27.409-9.138-35.204-.302-.196-.617-.372-.943-.525-16.582-7.812-32.191-18.691-44.733-27.433-4.398-3.065-8.552-5.961-12.143-8.291-15.108-9.799-31.599-7.229-45.74-3.421l-50.355 13.559-1.664-6.43c-1.157-4.475-3.997-8.234-7.994-10.589-3.998-2.354-8.664-3.014-13.137-1.855l-19.803 5.124c-4.474 1.158-8.234 3.997-10.588 7.994-2.354 3.998-3.013 8.664-1.855 13.138l26.618 102.865c1.158 4.475 3.997 8.235 7.995 10.589 2.71 1.596 5.727 2.413 8.783 2.413 1.452 0 2.914-.185 4.354-.558l19.802-5.124c4.475-1.158 8.235-3.997 10.589-7.994 2.354-3.998 3.013-8.664 1.855-13.138l-2.156-8.331 8.783-2.353 72.004 41.571c8.197 4.734 16.935 7.126 25.809 7.126 4.899 0 9.839-.729 14.752-2.195l129.562-38.681c12.985-3.876 21.179-20.138 17.192-34.118-1.926-6.742-11.484-27.85-53.762-16.352zm-227.828 58.352c-.131.223-.378.512-.811.623l-19.802 5.124c-.43.113-.788-.021-1.01-.152-.223-.131-.512-.378-.624-.81l-26.617-102.865c-.111-.432.021-.788.153-1.011.131-.223.378-.512.81-.623l19.803-5.124c.113-.029.222-.042.324-.042.286 0 .522.098.687.194.223.131.512.378.623.81l26.619 102.865c.109.432-.024.789-.155 1.011zm259.819-23.214-129.562 38.681c-9.624 2.874-19.039 1.711-27.983-3.454l-74.875-43.229c-1.838-1.062-4.021-1.35-6.07-.8l-11.851 3.175-14.782-57.124 50.507-13.6c15.421-4.152 24.944-3.749 32.872 1.396 3.368 2.185 7.23 4.876 11.702 7.993 12.9 8.991 28.923 20.159 46.51 28.519 4.653 3.266 6.207 8.998 3.598 13.518-2.773 4.802-7.281 6.019-13.397 3.629-8.409-4.221-16.264-8.923-24.571-13.901-3.984-2.389-8.104-4.858-12.369-7.32-3.826-2.207-8.719-.898-10.928 2.929s-.898 8.72 2.929 10.929c4.15 2.396 8.213 4.831 12.142 7.186 8.677 5.201 26.181 14.76 26.238 14.786l7.294 3.284c11.429 5.108 22.536 6.082 33.959 2.978l70.847-19.273c18.696-5.084 31.79-3.055 34.173 5.302 1.737 6.091-2.123 13.125-6.383 14.396zm-288.146-65.331c-.408 3.486-3.566 5.981-7.052 5.573s-5.981-3.566-5.573-7.052 3.566-5.981 7.052-5.573c3.486.409 5.981 3.565 5.573 7.052zm198.675 22.657h14.173c10.433 0 18.92-8.488 18.92-18.921v-4.586c6.591-2.961 11.2-9.574 11.2-17.256v-4.72c6.44-3.021 10.92-9.55 10.92-17.121v-10.653c1.639-27.384 8.427-38.99 14.992-50.21 5.941-10.153 12.084-20.652 12.084-40.168 0-41.467-33.736-75.203-75.203-75.203s-75.203 33.736-75.203 75.203c0 19.516 6.143 30.015 12.084 40.168 6.565 11.219 13.352 22.824 14.992 50.202v10.66c0 7.571 4.481 14.1 10.921 17.121v4.72c0 7.681 4.609 14.294 11.2 17.255v4.586c0 10.434 8.487 18.923 18.92 18.923zm-14.12-43.684h42.413v2.921c0 1.583-1.337 2.92-2.92 2.92h-36.572c-1.583 0-2.921-1.337-2.921-2.92zm-10.921-21.842h64.254v2.922c0 1.583-1.337 2.92-2.92 2.92h-58.414c-1.583 0-2.92-1.337-2.92-2.92zm12.522-89.998h-7.617c-4.2 0-7.617-3.417-7.617-7.616s3.417-7.616 7.617-7.616 7.617 3.417 7.617 7.616zm23.211 73.998h-7.21v-57.998h7.21zm3.481 65.526h-14.173c-1.583 0-2.92-1.338-2.92-2.921v-2.922h20.013v2.922c0 1.583-1.337 2.921-2.92 2.921zm-66.29-147.634c0-32.645 26.559-59.203 59.203-59.203s59.203 26.559 59.203 59.203c0 15.179-4.366 22.641-9.894 32.087-6.256 10.692-13.914 23.781-16.57 50.021h-13.134v-57.998h7.617c13.022 0 23.617-10.594 23.617-23.616s-10.594-23.616-23.617-23.616-23.617 10.594-23.617 23.616v7.616h-7.21v-7.616c0-13.022-10.594-23.616-23.617-23.616s-23.617 10.594-23.617 23.616 10.594 23.616 23.617 23.616h7.617v57.998h-13.133c-2.656-26.24-10.314-39.329-16.571-50.021-5.528-9.447-9.894-16.909-9.894-32.087zm78.809 8.11v-7.616c0-4.199 3.417-7.616 7.617-7.616s7.617 3.417 7.617 7.616-3.417 7.616-7.617 7.616zm-27.605-98.03v-15.83c0-4.418 3.582-8 8-8s8 3.582 8 8v15.83c0 4.418-3.582 8-8 8s-8-3.582-8-8zm-54.602-7.056c3.826-2.209 8.719-.898 10.928 2.928l7.915 13.709c2.209 3.826.898 8.719-2.928 10.928-1.26.728-2.635 1.073-3.993 1.073-2.765 0-5.454-1.435-6.936-4.001l-7.915-13.709c-2.208-3.826-.897-8.719 2.929-10.928zm106.36 16.637 7.915-13.709c2.209-3.827 7.102-5.138 10.928-2.928 3.826 2.209 5.137 7.102 2.928 10.928l-7.915 13.709c-1.482 2.566-4.171 4.001-6.936 4.001-1.357 0-2.733-.346-3.993-1.073-3.825-2.209-5.136-7.102-2.927-10.928zm37.105 45.105c-2.209-3.826-.898-8.719 2.928-10.928l13.709-7.915c3.826-2.209 8.719-.898 10.928 2.928s.898 8.719-2.928 10.928l-13.709 7.915c-1.26.728-2.635 1.073-3.993 1.073-2.764 0-5.453-1.434-6.935-4.001zm-307.646 54.334c6.643 3.705 13.666 6.617 20.966 8.693l5.279 13.716c1.188 3.088 4.156 5.126 7.466 5.126h28.653c3.31 0 6.277-2.038 7.466-5.126l5.278-13.712c7.306-2.077 14.332-4.989 20.973-8.694l13.436 5.968c3.024 1.344 6.564.686 8.904-1.654l20.261-20.262c2.34-2.341 2.998-5.88 1.655-8.904l-5.97-13.441c3.704-6.643 6.616-13.666 8.692-20.966l13.716-5.279c3.088-1.188 5.126-4.156 5.126-7.466v-14.327c0-4.418-3.582-8-8-8h-51.523c-4.418 0-8 3.582-8 8 0 25.552-20.788 46.34-46.34 46.34s-46.34-20.788-46.34-46.34c0-4.418-3.582-8-8-8h-51.524c-4.418 0-8 3.582-8 8v14.327c0 3.31 2.038 6.277 5.126 7.466l13.711 5.277c2.078 7.307 4.99 14.332 8.694 20.974l-5.967 13.436c-1.344 3.024-.686 6.563 1.654 8.904l20.262 20.262c2.34 2.34 5.881 2.996 8.904 1.654zm-27.409-23.375 5.403-12.166c1.071-2.411.884-5.195-.5-7.442-4.605-7.478-7.969-15.593-9.998-24.119-.611-2.566-2.447-4.667-4.909-5.614l-12.413-4.778v-.834h36.034c3.939 30.609 30.166 54.34 61.829 54.34 31.664 0 57.89-23.73 61.83-54.34h36.034v.834l-12.417 4.78c-2.461.947-4.298 3.048-4.909 5.614-2.027 8.518-5.391 16.63-9.997 24.112-1.383 2.246-1.57 5.03-.5 7.441l5.406 12.172-12.493 12.493-12.166-5.403c-2.411-1.072-5.196-.886-7.442.5-7.479 4.605-15.593 7.969-24.12 9.998-2.566.61-4.667 2.446-5.614 4.908l-4.778 12.414h-17.667l-4.78-12.418c-.947-2.462-3.048-4.298-5.614-4.909-8.518-2.026-16.631-5.39-24.112-9.997-2.247-1.383-5.03-1.568-7.442-.499l-12.171 5.406zm36.537-155.865v72.091c0 4.418 3.582 8 8 8s8-3.582 8-8v-72.091c9.096-3.285 15.615-12.003 15.615-22.218 0-13.022-10.594-23.616-23.616-23.616-13.021 0-23.615 10.594-23.615 23.616 0 10.215 6.52 18.933 15.616 22.218zm7.999-29.834c4.199 0 7.616 3.417 7.616 7.616s-3.417 7.615-7.616 7.615-7.615-3.416-7.615-7.615 3.416-7.616 7.615-7.616zm79.583 40.728v61.197c0 4.418 3.582 8 8 8s8-3.582 8-8v-53.197h8.049c3.285 9.095 12.003 15.615 22.218 15.615 13.021 0 23.615-10.594 23.615-23.615s-10.594-23.614-23.615-23.614c-10.214 0-18.932 6.52-22.218 15.614h-16.049c-4.418 0-8 3.582-8 8zm46.267-7.615c4.199 0 7.615 3.416 7.615 7.614 0 4.199-3.416 7.615-7.615 7.615s-7.615-3.416-7.615-7.615c-.001-4.198 3.415-7.614 7.615-7.614zm-189.878 31.23c10.215 0 18.933-6.52 22.218-15.615h8.048v53.197c0 4.418 3.582 8 8 8s8-3.582 8-8v-61.197c0-4.418-3.582-8-8-8h-16.048c-3.285-9.095-12.003-15.614-22.218-15.614-13.021-.001-23.615 10.593-23.615 23.614s10.594 23.615 23.615 23.615zm0-31.23c4.198 0 7.613 3.414 7.615 7.609v.005s0 .003 0 .005c-.003 4.197-3.418 7.61-7.615 7.61-4.199 0-7.615-3.416-7.615-7.615 0-4.198 3.416-7.614 7.615-7.614zm117.849-3.279v72.985c0 4.418 3.582 8 8 8s8-3.582 8-8v-72.985c9.096-3.285 15.616-12.003 15.616-22.218 0-13.022-10.594-23.616-23.615-23.616-13.022 0-23.616 10.594-23.616 23.616 0 10.215 6.52 18.933 15.615 22.218zm8.001-29.834c4.199 0 7.615 3.417 7.615 7.616s-3.416 7.615-7.615 7.615-7.616-3.416-7.616-7.615 3.417-7.616 7.616-7.616zm341.409 255.87-6.515-2.508c-1.075-3.423-2.45-6.739-4.113-9.922l2.835-6.385c1.344-3.024.686-6.563-1.654-8.904l-11.871-11.87c-2.34-2.34-5.878-2.995-8.904-1.654l-6.388 2.837c-3.182-1.662-6.497-3.036-9.917-4.112l-2.509-6.518c-1.189-3.088-4.156-5.126-7.466-5.126h-16.787c-3.309 0-6.277 2.037-7.466 5.126l-2.509 6.518c-3.42 1.076-6.735 2.45-9.917 4.112l-6.388-2.837c-3.024-1.345-6.563-.686-8.904 1.654l-11.871 11.87c-2.34 2.34-2.998 5.88-1.655 8.904l2.837 6.388c-1.663 3.182-3.037 6.497-4.112 9.918l-6.517 2.509c-3.088 1.188-5.126 4.156-5.126 7.466v16.787c0 3.31 2.038 6.277 5.126 7.466l6.515 2.508c1.075 3.422 2.45 6.739 4.113 9.922l-2.836 6.385c-1.343 3.024-.686 6.563 1.655 8.903l11.871 11.871c2.34 2.342 5.88 2.997 8.904 1.655l6.388-2.838c3.182 1.662 6.497 3.036 9.917 4.112l2.509 6.518c1.189 3.088 4.156 5.126 7.466 5.126h16.787c3.31 0 6.277-2.038 7.466-5.126l2.508-6.516c3.421-1.075 6.738-2.45 9.922-4.113l6.384 2.836c3.024 1.345 6.564.688 8.904-1.654l11.871-11.871c2.34-2.34 2.998-5.879 1.654-8.903l-2.837-6.389c1.662-3.182 3.037-6.498 4.112-9.917l6.518-2.509c3.089-1.188 5.126-4.156 5.126-7.466v-16.787c0-3.309-2.038-6.277-5.126-7.466zm-10.874 18.76-5.151 1.983c-2.462.947-4.298 3.048-4.909 5.614-1.105 4.646-2.941 9.073-5.456 13.158-1.382 2.246-1.569 5.03-.498 7.44l2.243 5.052-4.102 4.103-5.048-2.242c-2.412-1.071-5.196-.887-7.442.499-4.083 2.514-8.511 4.35-13.16 5.455-2.566.61-4.667 2.447-5.615 4.909l-1.982 5.149h-5.802l-1.983-5.151c-.947-2.461-3.047-4.298-5.613-4.908-4.649-1.107-9.076-2.942-13.158-5.456-2.248-1.384-5.031-1.569-7.442-.499l-5.051 2.244-4.103-4.103 2.242-5.049c1.071-2.411.884-5.195-.5-7.442-2.513-4.081-4.349-8.509-5.456-13.16-.611-2.566-2.447-4.667-4.909-5.614l-5.149-1.982v-5.802l5.15-1.982c2.461-.947 4.297-3.047 4.908-5.613 1.107-4.65 2.943-9.077 5.456-13.157 1.383-2.247 1.57-5.031.5-7.442l-2.244-5.051 4.103-4.103 5.051 2.243c2.412 1.071 5.195.885 7.441-.499 4.082-2.514 8.509-4.349 13.158-5.456 2.565-.61 4.665-2.447 5.613-4.908l1.983-5.151h5.802l1.983 5.151c.947 2.461 3.047 4.298 5.613 4.908 4.649 1.107 9.076 2.942 13.158 5.456 2.247 1.384 5.03 1.57 7.441.499l5.052-2.243 4.103 4.102-2.242 5.049c-1.071 2.411-.884 5.195.5 7.442 2.513 4.081 4.349 8.509 5.456 13.16.611 2.566 2.447 4.667 4.909 5.614l5.149 1.982v5.801zm-54.021-40.177c-20.555 0-37.277 16.723-37.277 37.277s16.722 37.275 37.277 37.275c20.554 0 37.276-16.722 37.276-37.275 0-20.554-16.722-37.277-37.276-37.277zm0 58.553c-11.732 0-21.277-9.544-21.277-21.275 0-11.732 9.545-21.277 21.277-21.277s21.276 9.545 21.276 21.277c0 11.731-9.545 21.275-21.276 21.275z"/></svg>