<svg height="512" viewBox="0 0 60 60" width="512" xmlns="http://www.w3.org/2000/svg"><g id="Page-1" fill="none" fill-rule="evenodd"><g id="005---Coding-Thinking" fill="rgb(0,0,0)" transform="translate(0 -1)"><path id="Path" d="m41.932 28.818c-1.5388212.0034468-3.0151095-.6086728-4.1-1.7-.3923789-.3789722-1.0160848-.3735524-1.4018186.0121814s-.3911536 1.0094397-.0121814 1.4018186c1.393116 1.3968417 3.2671485 2.2088391 5.239 2.27.6262186 2.2494181 2.5532547 3.8948925 4.873 4.161.0365309.0039918.0732517.0059947.11.006.5305523-.0012494.9677793-.4166218.9962085-.9464133.0284291-.5297916-.3618366-.9895681-.8892085-1.0475867-1.3778546-.1591917-2.5525408-1.0721083-3.047-2.368 3.5244103-.8241245 6.0188398-3.9645217 6.024-7.584 0-.5522847-.4477153-1-1-1s-1 .4477153-1 1c-.002754 3.1981777-2.5938241 5.7905899-5.792 5.795z"/><path id="Path" d="m45.537 44.592c0-.046.008-.091.008-.137-.0038579-4.0147775-3.257223-7.26859-7.272-7.273-.5522847 0-1 .4477153-1 1s.4477153 1 1 1c2.9106644.0033075 5.2692445 2.362335 5.272 5.273-.0021466.259932-.0238748.5193329-.065.776-2.5127289 1.2112413-4.111648 3.7525748-4.116 6.542 0 .5522847.4477153 1 1 1s1-.4477153 1-1c.0027555-2.910665 2.3613356-5.2696925 5.272-5.273.5522847 0 1-.4477153 1-1s-.4477153-1-1-1c-.3681373.0027307-.7355324.0334863-1.099.092z"/><path id="Shape" d="m55 15c1.6568542 0 3-1.3431458 3-3v-.184c1.3775467-.4870363 2.2038721-1.89566623 1.9567957-3.33573306s-1.4956868-2.49269406-2.9567957-2.49269406-2.7097193 1.05262723-2.9567957 2.49269406.579249 2.84869676 1.9567957 3.33573306v.184c0 .5522847-.4477153 1-1 1h-6.572c-.228298-.7339164-.6024413-1.414177-1.1-2h2.672c1.6568542 0 3-1.34314575 3-3v-1.184c1.3775467-.4870363 2.2038721-1.89566623 1.9567957-3.33573306s-1.4956868-2.49269406-2.9567957-2.49269406-2.7097193 1.05262723-2.9567957 2.49269406.579249 2.84869676 1.9567957 3.33573306v1.184c0 .55228475-.4477153 1-1 1h-5.444c-5.012-3.56-8.648-4.7-11.094-3.454-.1600493.08184712-.3143992.17439025-.462.277v-1.823c0-1.65685425-1.3431458-3-3-3s-3 1.34314575-3 3v1h-23c-2.209139 0-4 1.790861-4 4v44c0 2.209139 1.790861 4 4 4h23v1c0 1.6568542 1.3431458 3 3 3s3-1.3431458 3-3v-2.6c1.7054879 1.911239 4.2424785 2.8604979 6.7836723 2.5382285 2.5411937-.3222695 4.7609163-1.8747661 5.9353277-4.1512285.8963783-.0871631 1.7658373-.3548722 2.556-.787h1.725c.5522847 0 1 .4477153 1 1v1.184c-1.3775467.4870363-2.2038721 1.8956662-1.9567957 3.3357331.2470764 1.4400668 1.4956868 2.492694 2.9567957 2.492694s2.7097193-1.0526272 2.9567957-2.492694c.2470764-1.4400669-.579249-2.8486968-1.9567957-3.3357331v-1.184c-.0041321-1.4572456-1.0548755-2.7007589-2.491-2.948.4568899-.6202571.8039282-1.3143338 1.026-2.052h3.465c.5522847 0 1 .4477153 1 1v.184c-1.3775467.4870363-2.2038721 1.8956662-1.9567957 3.3357331.2470764 1.4400668 1.4956868 2.492694 2.9567957 2.492694s2.7097193-1.0526272 2.9567957-2.492694c.2470764-1.4400669-.579249-2.8486968-1.9567957-3.3357331v-.184c0-1.6568542-1.3431458-3-3-3h-3.186c-.0050207-.6121522-.0935027-1.2207601-.263-1.809 2.6333231-.7930953 4.4391519-3.2138557 4.449-5.964.0031855-1.5366095-.5673983-3.0190577-1.6-4.157 2.3592676-3.0736413 2.0908381-7.4163089-.629-10.176.7698269-3.7983552-1.6205933-7.5202328-5.395-8.4.159421-.4833569.2539144-.9857527.281-1.494zm2-7c.5522847 0 1 .44771525 1 1s-.4477153 1-1 1-1-.44771525-1-1 .4477153-1 1-1zm-5-5c.5522847 0 1 .44771525 1 1s-.4477153 1-1 1-1-.44771525-1-1 .4477153-1 1-1zm0 56c-.5522847 0-1-.4477153-1-1s.4477153-1 1-1 1 .4477153 1 1-.4477153 1-1 1zm5-5c-.5522847 0-1-.4477153-1-1s.4477153-1 1-1 1 .4477153 1 1-.4477153 1-1 1zm-53 1c-1.1045695 0-2-.8954305-2-2v-44c0-1.1045695.8954305-2 2-2h23v48zm27 3c0 .5522847-.4477153 1-1 1s-1-.4477153-1-1v-54c0-.55228475.4477153-1 1-1s1 .44771525 1 1zm20.909-34.455c-.0009872.4792138-.0662354.9561309-.194 1.418-.0739379.3691201.0407976.7508219.306 1.018 1.8212838 1.5886959 2.4644277 4.1413999 1.613311 6.4033968-.8511167 2.2619968-3.0174962 3.7575675-5.434311 3.7516032-.5522847 0-1 .4477153-1 1s.4477153 1 1 1c1.7319534.0038864 3.4153745-.5720393 4.782-1.636.6550949.7576754 1.0163474 1.725392 1.018 2.727-.0061064 2.2045021-1.7023967 4.0356257-3.9 4.21-.3372124.024631-.6391424.2179924-.802572.5139817-.1634297.2959893-.1662241.6545175-.007428.9530183.3514379.6670045.5337729 1.4100797.531 2.164-.0027559 2.6222102-2.1277898 4.7472441-4.75 4.75-.4032157.0003696-.7667621.2428654-.922.615-1.1162137 2.6884726-4.0523279 4.1330805-6.8633715 3.3768716-2.8110436-.756209-4.6260863-3.4789427-4.2427887-6.3645797s2.8461804-5.0401362 5.7571602-5.0362919c.5522847 0 1-.4477153 1-1s-.4477153-1-1-1c-2.2155746.0002261-4.3257063.9461472-5.8 2.6v-19.373c.0011026-1.1792232.9567768-2.1348974 2.136-2.136.5522847 0 1-.4477153 1-1s-.4477153-1-1-1c-.7547589.0035036-1.4939039.2152812-2.136.612v-12.153c0-.019.035-1.963 1.375-2.633.838-.42 2.782-.608 6.888 1.893-2.3729815.75062374-3.9869566 2.9511312-3.99 5.44 0 .5522847.4477153 1 1 1s1-.4477153 1-1c.0049646-1.5220887.9415565-2.8858407 2.3603916-3.4369174s3.0303905-.177027 4.0614295.942677c1.031039 1.1197041 1.271171 2.7565794.6051789 4.1252404-3.8783557.1793099-6.9324693 3.3725069-6.939 7.255 0 .5522847.4477153 1 1 1s1-.4477153 1-1c.0397135-2.883606 2.3886206-5.2003863 5.2725-5.2003863s5.2327865 2.3167803 5.2725 5.2003863z" fill-rule="nonzero"/><path id="Path" d="m5.6 9.2c-.4418278-.33137085-1.06862915-.2418278-1.4.2s-.2418278 1.0686292.2 1.4l2.933 2.2-2.933 2.2c-.28581248.2143594-.43555474.5649147-.39282034.9196152.04273441.3547006.27145312.6596589.60000001.8000001.32854689.1403411.70700786.0947441.99282033-.1196153l4-3c.25180584-.1888544.4-.4852427.4-.8s-.14819416-.6111456-.4-.8z"/><path id="Path" d="m13 17h4c.5522847 0 1-.4477153 1-1s-.4477153-1-1-1h-4c-.5522847 0-1 .4477153-1 1s.4477153 1 1 1z"/><path id="Path" d="m8 21h-3c-.55228475 0-1 .4477153-1 1s.44771525 1 1 1h3c.55228475 0 1-.4477153 1-1s-.44771525-1-1-1z"/><path id="Path" d="m8 25h-3c-.55228475 0-1 .4477153-1 1s.44771525 1 1 1h3c.55228475 0 1-.4477153 1-1s-.44771525-1-1-1z"/><path id="Path" d="m8 29h-3c-.55228475 0-1 .4477153-1 1s.44771525 1 1 1h3c.55228475 0 1-.4477153 1-1s-.44771525-1-1-1z"/><path id="Path" d="m8 33h-3c-.55228475 0-1 .4477153-1 1s.44771525 1 1 1h3c.55228475 0 1-.4477153 1-1s-.44771525-1-1-1z"/><path id="Path" d="m8 37h-3c-.55228475 0-1 .4477153-1 1s.44771525 1 1 1h3c.55228475 0 1-.4477153 1-1s-.44771525-1-1-1z"/><path id="Path" d="m8 41h-3c-.55228475 0-1 .4477153-1 1s.44771525 1 1 1h3c.55228475 0 1-.4477153 1-1s-.44771525-1-1-1z"/><path id="Path" d="m8 45h-3c-.55228475 0-1 .4477153-1 1s.44771525 1 1 1h3c.55228475 0 1-.4477153 1-1s-.44771525-1-1-1z"/><path id="Path" d="m8 49h-3c-.55228475 0-1 .4477153-1 1s.44771525 1 1 1h3c.55228475 0 1-.4477153 1-1s-.44771525-1-1-1z"/><path id="Path" d="m24 21h-12c-.5522847 0-1 .4477153-1 1s.4477153 1 1 1h12c.5522847 0 1-.4477153 1-1s-.4477153-1-1-1z"/><path id="Path" d="m22 27c.5522847 0 1-.4477153 1-1s-.4477153-1-1-1h-8c-.5522847 0-1 .4477153-1 1s.4477153 1 1 1z"/><path id="Path" d="m24 29h-12c-.5522847 0-1 .4477153-1 1s.4477153 1 1 1h12c.5522847 0 1-.4477153 1-1s-.4477153-1-1-1z"/><path id="Path" d="m22 35c.5522847 0 1-.4477153 1-1s-.4477153-1-1-1h-8c-.5522847 0-1 .4477153-1 1s.4477153 1 1 1z"/><path id="Path" d="m24 37h-12c-.5522847 0-1 .4477153-1 1s.4477153 1 1 1h12c.5522847 0 1-.4477153 1-1s-.4477153-1-1-1z"/><path id="Path" d="m22 43c.5522847 0 1-.4477153 1-1s-.4477153-1-1-1h-8c-.5522847 0-1 .4477153-1 1s.4477153 1 1 1z"/><path id="Path" d="m24 45h-12c-.5522847 0-1 .4477153-1 1s.4477153 1 1 1h12c.5522847 0 1-.4477153 1-1s-.4477153-1-1-1z"/><path id="Path" d="m22 49h-8c-.5522847 0-1 .4477153-1 1s.4477153 1 1 1h8c.5522847 0 1-.4477153 1-1s-.4477153-1-1-1z"/></g></g></svg>